<!DOCTYPE svg PUBLIC "-//W3C//DTD SVG 1.1//EN" "http://www.w3.org/Graphics/SVG/1.1/DTD/svg11.dtd">
<!-- Uploaded to: SVG Repo, www.svgrepo.com, Transformed by: SVG Repo Mixer Tools -->
<svg fill="#000000" height="800px" width="800px" version="1.1" id="Layer_1" xmlns="http://www.w3.org/2000/svg" xmlns:xlink="http://www.w3.org/1999/xlink" viewBox="0 0 512 512" xml:space="preserve">
<g id="SVGRepo_bgCarrier" stroke-width="0"/>
<g id="SVGRepo_tracerCarrier" stroke-linecap="round" stroke-linejoin="round"/>
<g id="SVGRepo_iconCarrier"> <g> <g> <path d="M436.817,385.638l-164.122-94.756V83.478c0-9.22-7.475-16.696-16.696-16.696c-9.22,0-16.696,7.475-16.696,16.696v207.404 L75.133,385.667c-7.986,4.61-10.722,14.821-6.111,22.806c3.092,5.356,8.704,8.351,14.474,8.35c2.833,0,5.703-0.721,8.332-2.239 L256,319.8l164.122,94.756c7.984,4.611,18.196,1.874,22.806-6.111C447.539,400.46,444.803,390.249,436.817,385.638z"/> </g> </g> <g> <g> <path d="M489.739,0H22.261C13.04,0,5.565,7.475,5.565,16.696v478.609c0,9.22,7.475,16.696,16.696,16.696h467.478 c9.22,0,16.696-7.475,16.696-16.696V16.696C506.435,7.475,498.96,0,489.739,0z M473.043,478.609H38.957V33.391h434.087V478.609z"/> </g> </g> <g> <g> <path d="M429.872,278.261l10.456-10.456c6.52-6.52,6.52-17.091,0-23.611c-6.519-6.52-17.091-6.52-23.611,0l-10.456,10.456 l-10.456-10.456c-6.519-6.52-17.091-6.52-23.611,0c-6.52,6.52-6.52,17.092,0.001,23.611l10.456,10.456l-10.456,10.456 c-6.52,6.52-6.52,17.091,0,23.611c3.259,3.26,7.532,4.89,11.805,4.89s8.546-1.63,11.805-4.891l10.456-10.456l10.456,10.456 c3.259,3.261,7.532,4.891,11.805,4.891s8.546-1.63,11.805-4.891c6.52-6.52,6.52-17.091,0-23.611L429.872,278.261z"/> </g> </g> <g> <g> <path d="M367.979,66.108c-6.519-6.52-17.091-6.52-23.611,0l-10.455,10.455l-10.456-10.455c-6.519-6.52-17.091-6.52-23.611,0 c-6.52,6.52-6.52,17.091,0,23.611l17.371,17.37v21.566c0,9.22,7.475,16.696,16.696,16.696s16.696-7.475,16.696-16.696v-21.566 l17.37-17.37C374.499,83.199,374.499,72.628,367.979,66.108z"/> </g> </g> <g> <g> <path d="M144.696,278.261H129.35l27.152-27.152c4.775-4.775,6.203-11.956,3.62-18.195c-2.585-6.239-8.672-10.307-15.425-10.307 H89.044c-9.22,0-16.696,7.475-16.696,16.696c0,9.22,7.475,16.697,16.696,16.697h15.346l-27.152,27.152 c-4.775,4.775-6.203,11.956-3.62,18.195c2.586,6.237,8.673,10.306,15.426,10.306h55.652c9.22,0,16.696-7.475,16.696-16.696 S153.916,278.261,144.696,278.261z"/> </g> </g> </g>
</svg>